<mxfile host="app.diagrams.net" modified="2020-06-16T15:39:51.164Z" agent="5.0 (X11; Linux x86_64) AppleWebKit/537.36 (KHTML, like Gecko) snap Chromium/83.0.4103.106 Chrome/83.0.4103.106 Safari/537.36" etag="Dj1ASiJ5cAgPr5-TIoHL" version="13.2.4" type="github">
  <diagram id="C5RBs43oDa-KdzZeNtuy" name="Page-1">
    <mxGraphModel dx="1662" dy="771" grid="1" gridSize="10" guides="1" tooltips="1" connect="1" arrows="1" fold="1" page="1" pageScale="1.5" pageWidth="827" pageHeight="1169" math="0" shadow="0" extFonts="Quicksand^https://fonts.googleapis.com/css?family=Quicksand|Gruppo^https://fonts.googleapis.com/css?family=Gruppo|Pompiere^https://fonts.googleapis.com/css?family=Pompiere">
      <root>
        <mxCell id="WIyWlLk6GJQsqaUBKTNV-0" />
        <mxCell id="WIyWlLk6GJQsqaUBKTNV-1" parent="WIyWlLk6GJQsqaUBKTNV-0" />
        <mxCell id="EIEGdvuZ-sx4ZcDznCTi-5" value="&lt;table border=&quot;1&quot; width=&quot;100%&quot; style=&quot;width: 100% ; height: 100% ; border-collapse: collapse ; border: 1px solid rgb(0 , 0 , 0)&quot;&gt;&lt;tbody&gt;&lt;tr&gt;&lt;td&gt;&lt;u&gt;ID&lt;/u&gt;&lt;/td&gt;&lt;td&gt;Address&lt;/td&gt;&lt;td&gt;Name&lt;/td&gt;&lt;td&gt;Opening_Time&lt;/td&gt;&lt;td&gt;Closing_Time&lt;/td&gt;&lt;td&gt;Phone&lt;/td&gt;&lt;td&gt;Slot&lt;/td&gt;&lt;/tr&gt;&lt;/tbody&gt;&lt;/table&gt;" style="text;html=1;strokeColor=none;fillColor=none;overflow=fill;align=center;" parent="WIyWlLk6GJQsqaUBKTNV-1" vertex="1">
          <mxGeometry x="412" y="477" width="417.5" height="30" as="geometry" />
        </mxCell>
        <mxCell id="EIEGdvuZ-sx4ZcDznCTi-8" value="&lt;b&gt;STRUCTURE&lt;/b&gt;" style="text;html=1;strokeColor=none;fillColor=none;align=center;verticalAlign=middle;whiteSpace=wrap;rounded=0;" parent="WIyWlLk6GJQsqaUBKTNV-1" vertex="1">
          <mxGeometry x="428" y="450" width="40" height="20" as="geometry" />
        </mxCell>
        <mxCell id="EIEGdvuZ-sx4ZcDznCTi-9" value="&lt;table border=&quot;1&quot; width=&quot;100%&quot; style=&quot;width: 100% ; height: 100% ; border-collapse: collapse ; border: 1px solid rgb(0 , 0 , 0)&quot;&gt;&lt;tbody&gt;&lt;tr&gt;&lt;td&gt;&lt;u&gt;ID&lt;/u&gt;&lt;/td&gt;&lt;td&gt;Date&lt;/td&gt;&lt;td&gt;Hour_Start&lt;/td&gt;&lt;td&gt;Deleted&lt;/td&gt;&lt;td&gt;Deleted_Reason&lt;/td&gt;&lt;td&gt;&lt;i&gt;ID_Structure&lt;/i&gt;&lt;/td&gt;&lt;td&gt;&lt;i&gt;ID_Customer&lt;/i&gt;&lt;/td&gt;&lt;/tr&gt;&lt;/tbody&gt;&lt;/table&gt;" style="text;html=1;strokeColor=none;fillColor=none;overflow=fill;align=center;" parent="WIyWlLk6GJQsqaUBKTNV-1" vertex="1">
          <mxGeometry x="389.75" y="346" width="473" height="30" as="geometry" />
        </mxCell>
        <mxCell id="EIEGdvuZ-sx4ZcDznCTi-10" value="&lt;b&gt;BOOKING&lt;/b&gt;" style="text;html=1;strokeColor=none;fillColor=none;align=center;verticalAlign=middle;whiteSpace=wrap;rounded=0;" parent="WIyWlLk6GJQsqaUBKTNV-1" vertex="1">
          <mxGeometry x="396.75" y="320" width="40" height="20" as="geometry" />
        </mxCell>
        <mxCell id="KOET7OHkxtdppqmsKOV2-9" value="&lt;table border=&quot;1&quot; width=&quot;100%&quot; style=&quot;width: 100% ; height: 100% ; border-collapse: collapse ; border: 1px solid rgb(0 , 0 , 0)&quot;&gt;&lt;tbody&gt;&lt;tr&gt;&lt;td&gt;&amp;nbsp;&lt;u&gt;ID&lt;/u&gt;&amp;nbsp;&lt;/td&gt;&lt;td&gt;Producer&lt;/td&gt;&lt;td&gt;Price&lt;/td&gt;&lt;td&gt;Discount&lt;/td&gt;&lt;td&gt;Name&lt;/td&gt;&lt;td&gt;Insert_Date&lt;/td&gt;&lt;td&gt;Pic_Name&lt;/td&gt;&lt;td&gt;Description&lt;/td&gt;&lt;td&gt;Max_Order_Qty&lt;/td&gt;&lt;td&gt;Category&lt;/td&gt;&lt;td&gt;Deleted&lt;/td&gt;&lt;td&gt;Showcase&lt;/td&gt;&lt;td&gt;&lt;i&gt;ID_Structure&lt;/i&gt;&lt;/td&gt;&lt;/tr&gt;&lt;/tbody&gt;&lt;/table&gt;" style="text;html=1;strokeColor=none;fillColor=none;overflow=fill;align=center;" parent="WIyWlLk6GJQsqaUBKTNV-1" vertex="1">
          <mxGeometry x="286.75" y="610" width="713.5" height="30" as="geometry" />
        </mxCell>
        <mxCell id="KOET7OHkxtdppqmsKOV2-10" value="&lt;b&gt;PRODUCT&lt;/b&gt;" style="text;html=1;strokeColor=none;fillColor=none;align=center;verticalAlign=middle;whiteSpace=wrap;rounded=0;" parent="WIyWlLk6GJQsqaUBKTNV-1" vertex="1">
          <mxGeometry x="298.25" y="580" width="40" height="20" as="geometry" />
        </mxCell>
        <mxCell id="IJAy8uQEqMEVMCcrtVZX-7" value="&lt;table border=&quot;1&quot; width=&quot;100%&quot; style=&quot;width: 100% ; height: 100% ; border-collapse: collapse ; border: 1px solid rgb(0 , 0 , 0)&quot;&gt;&lt;tbody&gt;&lt;tr&gt;&lt;td&gt;ID&lt;/td&gt;&lt;td&gt;Shipping_Address&lt;/td&gt;&lt;td&gt;&lt;span style=&quot;font-style: normal&quot;&gt;Sell_Date&lt;/span&gt;&lt;/td&gt;&lt;td&gt;&lt;span style=&quot;font-style: normal&quot;&gt;Order_Date&lt;/span&gt;&lt;/td&gt;&lt;td&gt;&lt;span style=&quot;font-style: normal&quot;&gt;Deleted&lt;/span&gt;&lt;/td&gt;&lt;td&gt;&lt;span style=&quot;font-style: normal&quot;&gt;Total_Price&lt;/span&gt;&lt;/td&gt;&lt;td&gt;&lt;span style=&quot;font-style: normal&quot;&gt;Status&lt;/span&gt;&lt;/td&gt;&lt;td&gt;ID_Customer&lt;/td&gt;&lt;/tr&gt;&lt;/tbody&gt;&lt;/table&gt;" style="text;html=1;strokeColor=none;fillColor=none;overflow=fill;align=center;fontStyle=2" parent="WIyWlLk6GJQsqaUBKTNV-1" vertex="1">
          <mxGeometry x="413.5" y="1147" width="466" height="30" as="geometry" />
        </mxCell>
        <mxCell id="IJAy8uQEqMEVMCcrtVZX-8" value="&lt;b&gt;ORDERS&lt;/b&gt;" style="text;html=1;strokeColor=none;fillColor=none;align=center;verticalAlign=middle;whiteSpace=wrap;rounded=0;" parent="WIyWlLk6GJQsqaUBKTNV-1" vertex="1">
          <mxGeometry x="412" y="1120" width="55.5" height="20" as="geometry" />
        </mxCell>
        <mxCell id="CbVcJyqTISDlB1ADT2_T-2" value="&lt;table border=&quot;1&quot; width=&quot;100%&quot; style=&quot;width: 100% ; height: 100% ; border-collapse: collapse ; border: 1px solid rgb(0 , 0 , 0)&quot;&gt;&lt;tbody&gt;&lt;tr&gt;&lt;td&gt;&lt;u&gt;ID&lt;/u&gt;&lt;/td&gt;&lt;td&gt;Email&lt;/td&gt;&lt;td&gt;Password&lt;/td&gt;&lt;td&gt;Name&lt;/td&gt;&lt;td&gt;Surname&lt;/td&gt;&lt;td&gt;Birth_Date&lt;/td&gt;&lt;td&gt;Address&lt;/td&gt;&lt;td&gt;Phone&lt;/td&gt;&lt;td&gt;Fiscal_Code&lt;/td&gt;&lt;td&gt;Type&lt;/td&gt;&lt;td&gt;Deleted&lt;/td&gt;&lt;td&gt;Blocked&lt;/td&gt;&lt;td&gt;&lt;i&gt;ID_Structure&lt;/i&gt;&lt;/td&gt;&lt;/tr&gt;&lt;/tbody&gt;&lt;/table&gt;" style="text;html=1;strokeColor=none;fillColor=none;overflow=fill;align=center;" parent="WIyWlLk6GJQsqaUBKTNV-1" vertex="1">
          <mxGeometry x="318" y="213" width="651" height="30" as="geometry" />
        </mxCell>
        <mxCell id="CbVcJyqTISDlB1ADT2_T-3" value="&lt;b&gt;USER&lt;/b&gt;" style="text;html=1;strokeColor=none;fillColor=none;align=center;verticalAlign=middle;whiteSpace=wrap;rounded=0;" parent="WIyWlLk6GJQsqaUBKTNV-1" vertex="1">
          <mxGeometry x="323" y="190" width="40" height="20" as="geometry" />
        </mxCell>
        <mxCell id="CbVcJyqTISDlB1ADT2_T-9" value="&lt;b&gt;&lt;font style=&quot;font-size: 20px&quot;&gt;SCHEMA RELAZIONALE FINALE NON NORMALIZZATO&lt;/font&gt;&lt;/b&gt;" style="text;html=1;strokeColor=none;fillColor=none;align=left;verticalAlign=middle;whiteSpace=wrap;rounded=0;" parent="WIyWlLk6GJQsqaUBKTNV-1" vertex="1">
          <mxGeometry x="384" y="101" width="606" height="20" as="geometry" />
        </mxCell>
        <mxCell id="CbVcJyqTISDlB1ADT2_T-19" value="" style="endArrow=none;html=1;rounded=0;strokeColor=#000000;" parent="WIyWlLk6GJQsqaUBKTNV-1" edge="1">
          <mxGeometry relative="1" as="geometry">
            <mxPoint x="80" y="1450" as="sourcePoint" />
            <mxPoint x="80" y="40" as="targetPoint" />
          </mxGeometry>
        </mxCell>
        <mxCell id="CbVcJyqTISDlB1ADT2_T-20" value="" style="endArrow=none;html=1;rounded=0;strokeColor=#000000;" parent="WIyWlLk6GJQsqaUBKTNV-1" edge="1">
          <mxGeometry relative="1" as="geometry">
            <mxPoint x="80" y="40" as="sourcePoint" />
            <mxPoint x="1160" y="40" as="targetPoint" />
          </mxGeometry>
        </mxCell>
        <mxCell id="CbVcJyqTISDlB1ADT2_T-21" value="" style="endArrow=none;html=1;rounded=0;strokeColor=#000000;" parent="WIyWlLk6GJQsqaUBKTNV-1" edge="1">
          <mxGeometry relative="1" as="geometry">
            <mxPoint x="1160" y="1450" as="sourcePoint" />
            <mxPoint x="1160" y="40" as="targetPoint" />
          </mxGeometry>
        </mxCell>
        <mxCell id="CbVcJyqTISDlB1ADT2_T-22" value="" style="endArrow=none;html=1;rounded=0;strokeColor=#000000;" parent="WIyWlLk6GJQsqaUBKTNV-1" edge="1">
          <mxGeometry relative="1" as="geometry">
            <mxPoint x="80" y="1450" as="sourcePoint" />
            <mxPoint x="1160" y="1450" as="targetPoint" />
          </mxGeometry>
        </mxCell>
        <mxCell id="8RzJpFf-Yr8NIqFTO0fK-0" value="&lt;table border=&quot;1&quot; width=&quot;100%&quot; style=&quot;width: 100% ; height: 100% ; border-collapse: collapse ; border: 1px solid rgb(0 , 0 , 0)&quot;&gt;&lt;tbody&gt;&lt;tr&gt;&lt;td&gt;&lt;u&gt;ID_Customer&lt;/u&gt;&lt;/td&gt;&lt;td&gt;&lt;u&gt;ID_Product&lt;/u&gt;&lt;/td&gt;&lt;td&gt;&lt;span style=&quot;font-style: normal&quot;&gt;Desired_Qty&lt;/span&gt;&lt;/td&gt;&lt;/tr&gt;&lt;/tbody&gt;&lt;/table&gt;" style="text;html=1;strokeColor=none;fillColor=none;overflow=fill;align=center;fontStyle=2" parent="WIyWlLk6GJQsqaUBKTNV-1" vertex="1">
          <mxGeometry x="510" y="762" width="252.5" height="30" as="geometry" />
        </mxCell>
        <mxCell id="8RzJpFf-Yr8NIqFTO0fK-1" value="&lt;b&gt;CART&lt;/b&gt;" style="text;html=1;strokeColor=none;fillColor=none;align=center;verticalAlign=middle;whiteSpace=wrap;rounded=0;" parent="WIyWlLk6GJQsqaUBKTNV-1" vertex="1">
          <mxGeometry x="521" y="740" width="55.5" height="20" as="geometry" />
        </mxCell>
        <mxCell id="8RzJpFf-Yr8NIqFTO0fK-2" value="&lt;table border=&quot;1&quot; width=&quot;100%&quot; style=&quot;width: 100% ; height: 100% ; border-collapse: collapse ; border: 1px solid rgb(0 , 0 , 0)&quot;&gt;&lt;tbody&gt;&lt;tr&gt;&lt;td&gt;&lt;u&gt;ID_Customer&lt;/u&gt;&lt;/td&gt;&lt;td&gt;&lt;u&gt;ID_Product&lt;/u&gt;&lt;/td&gt;&lt;/tr&gt;&lt;/tbody&gt;&lt;/table&gt;" style="text;html=1;strokeColor=none;fillColor=none;overflow=fill;align=center;fontStyle=2" parent="WIyWlLk6GJQsqaUBKTNV-1" vertex="1">
          <mxGeometry x="530.5" y="882" width="227.5" height="30" as="geometry" />
        </mxCell>
        <mxCell id="8RzJpFf-Yr8NIqFTO0fK-3" value="&lt;b&gt;WISHLIST&lt;/b&gt;" style="text;html=1;strokeColor=none;fillColor=none;align=center;verticalAlign=middle;whiteSpace=wrap;rounded=0;" parent="WIyWlLk6GJQsqaUBKTNV-1" vertex="1">
          <mxGeometry x="541.5" y="860" width="55.5" height="20" as="geometry" />
        </mxCell>
        <mxCell id="jN095DMbJzueWw74nH2b-2" value="&lt;table border=&quot;1&quot; width=&quot;100%&quot; style=&quot;width: 100% ; height: 100% ; border-collapse: collapse ; border: 1px solid rgb(0 , 0 , 0)&quot;&gt;&lt;tbody&gt;&lt;tr&gt;&lt;td&gt;&lt;u&gt;ID_Product&lt;/u&gt;&lt;/td&gt;&lt;td&gt;&lt;u&gt;ID_Order&lt;/u&gt;&lt;/td&gt;&lt;td&gt;&lt;span style=&quot;font-style: normal&quot;&gt;Quantity&lt;/span&gt;&lt;/td&gt;&lt;/tr&gt;&lt;/tbody&gt;&lt;/table&gt;" style="text;html=1;strokeColor=none;fillColor=none;overflow=fill;align=center;fontStyle=2" vertex="1" parent="WIyWlLk6GJQsqaUBKTNV-1">
          <mxGeometry x="522.5" y="1022" width="227.5" height="30" as="geometry" />
        </mxCell>
        <mxCell id="jN095DMbJzueWw74nH2b-3" value="&lt;b&gt;ITEMS_LIST&lt;/b&gt;" style="text;html=1;strokeColor=none;fillColor=none;align=center;verticalAlign=middle;whiteSpace=wrap;rounded=0;" vertex="1" parent="WIyWlLk6GJQsqaUBKTNV-1">
          <mxGeometry x="533.5" y="1000" width="55.5" height="20" as="geometry" />
        </mxCell>
      </root>
    </mxGraphModel>
  </diagram>
</mxfile>
